<svg width="40" height="40" viewBox="0 0 40 40" fill="none" xmlns="http://www.w3.org/2000/svg">
<g id="coronavirus 2">
<path id="Vector" d="M18.7499 36.6666C18.5277 36.6666 18.3333 36.5833 18.1666 36.4166C17.9999 36.25 17.9166 36.0555 17.9166 35.8333C17.9166 35.6111 17.9999 35.4166 18.1666 35.25C18.3333 35.0833 18.5277 35 18.7499 35H19.1666V31.2083C17.9166 31.0694 16.736 30.7708 15.6249 30.3125C14.5138 29.8541 13.5138 29.25 12.6249 28.5L9.95825 31.1666L10.2916 31.5C10.4305 31.6389 10.5208 31.8125 10.5624 32.0208C10.6041 32.2291 10.5138 32.4444 10.2916 32.6666C10.1249 32.8333 9.93047 32.9166 9.70825 32.9166C9.48603 32.9166 9.29158 32.8333 9.12492 32.6666L7.33325 30.9166C7.16659 30.75 7.08325 30.5555 7.08325 30.3333C7.08325 30.1111 7.16659 29.9028 7.33325 29.7083C7.49992 29.5416 7.68742 29.4583 7.89575 29.4583C8.10409 29.4583 8.31936 29.5555 8.54158 29.75L8.79158 30L11.4583 27.3333C10.736 26.4166 10.1458 25.4166 9.68742 24.3333C9.22908 23.25 8.93047 22.0833 8.79158 20.8333H4.99992V21.25C4.99992 21.4722 4.91659 21.6666 4.74992 21.8333C4.58325 22 4.38881 22.0833 4.16659 22.0833C3.94436 22.0833 3.74992 22 3.58325 21.8333C3.41659 21.6666 3.33325 21.4722 3.33325 21.25V18.75C3.33325 18.5278 3.41659 18.3333 3.58325 18.1666C3.74992 18 3.94436 17.9166 4.16659 17.9166C4.38881 17.9166 4.58325 18 4.74992 18.1666C4.91659 18.3333 4.99992 18.5278 4.99992 18.75V19.1666H8.79158C8.93047 17.9166 9.22908 16.75 9.68742 15.6666C10.1458 14.5833 10.736 13.5833 11.4583 12.6666L8.79158 9.99998L8.49992 10.2916C8.33325 10.4583 8.13881 10.5416 7.91659 10.5416C7.69436 10.5416 7.49992 10.4583 7.33325 10.2916C7.16659 10.125 7.08325 9.92359 7.08325 9.68748C7.08325 9.45137 7.16659 9.24998 7.33325 9.08331L9.08325 7.33331C9.24992 7.16665 9.45131 7.08331 9.68742 7.08331C9.92353 7.08331 10.1249 7.16665 10.2916 7.33331C10.4583 7.4722 10.5416 7.6597 10.5416 7.89581C10.5416 8.13192 10.4583 8.31942 10.2916 8.45831L9.95825 8.79165L12.6249 11.4583C13.5416 10.7361 14.5416 10.1458 15.6249 9.68748C16.7083 9.22915 17.8749 8.93053 19.1249 8.79165V4.99998H18.7499C18.5277 4.99998 18.3333 4.91665 18.1666 4.74998C17.9999 4.58331 17.9166 4.38887 17.9166 4.16665C17.9166 3.94442 17.9999 3.74998 18.1666 3.58331C18.3333 3.41665 18.5277 3.33331 18.7499 3.33331H21.2499C21.4721 3.33331 21.6666 3.41665 21.8333 3.58331C21.9999 3.74998 22.0833 3.94442 22.0833 4.16665C22.0833 4.38887 21.9999 4.58331 21.8333 4.74998C21.6666 4.91665 21.4721 4.99998 21.2499 4.99998H20.8333V8.79165C22.0833 8.93053 23.2499 9.22915 24.3333 9.68748C25.4166 10.1458 26.4166 10.7361 27.3333 11.4583L29.9999 8.79165L29.7499 8.54165C29.5555 8.37498 29.4513 8.18053 29.4374 7.95831C29.4235 7.73609 29.5138 7.52776 29.7083 7.33331C29.8749 7.16665 30.0694 7.08331 30.2916 7.08331C30.5138 7.08331 30.7083 7.16665 30.8749 7.33331L32.7083 9.16665C32.8749 9.33331 32.9513 9.52081 32.9374 9.72915C32.9235 9.93748 32.8333 10.125 32.6666 10.2916C32.4999 10.4583 32.3055 10.5278 32.0833 10.5C31.861 10.4722 31.6527 10.375 31.4583 10.2083L31.2083 9.95831L28.5416 12.625C29.2638 13.5416 29.8541 14.5486 30.3124 15.6458C30.7708 16.743 31.0694 17.9166 31.2083 19.1666H34.9999V18.75C34.9999 18.5278 35.0833 18.3333 35.2499 18.1666C35.4166 18 35.611 17.9166 35.8333 17.9166C36.0555 17.9166 36.2499 18 36.4166 18.1666C36.5832 18.3333 36.6666 18.5278 36.6666 18.75V21.25C36.6666 21.4722 36.5832 21.6666 36.4166 21.8333C36.2499 22 36.0555 22.0833 35.8333 22.0833C35.611 22.0833 35.4166 22 35.2499 21.8333C35.0833 21.6666 34.9999 21.4722 34.9999 21.25V20.8333H31.2083C31.0694 22.0833 30.7708 23.2569 30.3124 24.3541C29.8541 25.4514 29.2638 26.4583 28.5416 27.375L31.2083 30.0416L31.4999 29.75C31.6666 29.5833 31.861 29.493 32.0833 29.4791C32.3055 29.4653 32.4999 29.5416 32.6666 29.7083C32.8333 29.875 32.9166 30.0764 32.9166 30.3125C32.9166 30.5486 32.8333 30.75 32.6666 30.9166L30.9166 32.6666C30.7499 32.8333 30.5485 32.9166 30.3124 32.9166C30.0763 32.9166 29.8749 32.8333 29.7083 32.6666C29.5138 32.4722 29.4305 32.2708 29.4583 32.0625C29.486 31.8541 29.5555 31.6805 29.6666 31.5416L29.9999 31.2083L27.3333 28.5416C26.4166 29.2639 25.4166 29.8611 24.3333 30.3333C23.2499 30.8055 22.0833 31.1111 20.8333 31.25V35H21.2499C21.4721 35 21.6666 35.0833 21.8333 35.25C21.9999 35.4166 22.0833 35.6111 22.0833 35.8333C22.0833 36.0555 21.9999 36.25 21.8333 36.4166C21.6666 36.5833 21.4721 36.6666 21.2499 36.6666H18.7499ZM17.0833 26.25C17.4166 26.25 17.7083 26.125 17.9583 25.875C18.2083 25.625 18.3333 25.3333 18.3333 25C18.3333 24.6666 18.2083 24.375 17.9583 24.125C17.7083 23.875 17.4166 23.75 17.0833 23.75C16.7499 23.75 16.4583 23.875 16.2083 24.125C15.9583 24.375 15.8333 24.6666 15.8333 25C15.8333 25.3333 15.9583 25.625 16.2083 25.875C16.4583 26.125 16.7499 26.25 17.0833 26.25ZM22.9166 26.25C23.2777 26.25 23.5763 26.125 23.8124 25.875C24.0485 25.625 24.1666 25.3333 24.1666 25C24.1666 24.6666 24.0485 24.375 23.8124 24.125C23.5763 23.875 23.2777 23.75 22.9166 23.75C22.5833 23.75 22.2916 23.875 22.0416 24.125C21.7916 24.375 21.6666 24.6666 21.6666 25C21.6666 25.3333 21.7916 25.625 22.0416 25.875C22.2916 26.125 22.5833 26.25 22.9166 26.25ZM14.1666 21.25C14.5277 21.25 14.8263 21.125 15.0624 20.875C15.2985 20.625 15.4166 20.3333 15.4166 20C15.4166 19.6666 15.2985 19.375 15.0624 19.125C14.8263 18.875 14.5277 18.75 14.1666 18.75C13.8333 18.75 13.5416 18.875 13.2916 19.125C13.0416 19.375 12.9166 19.6666 12.9166 20C12.9166 20.3333 13.0416 20.625 13.2916 20.875C13.5416 21.125 13.8333 21.25 14.1666 21.25ZM19.9999 21.25C20.3333 21.25 20.6249 21.125 20.8749 20.875C21.1249 20.625 21.2499 20.3333 21.2499 20C21.2499 19.6666 21.1249 19.375 20.8749 19.125C20.6249 18.875 20.3333 18.75 19.9999 18.75C19.6666 18.75 19.3749 18.875 19.1249 19.125C18.8749 19.375 18.7499 19.6666 18.7499 20C18.7499 20.3333 18.8749 20.625 19.1249 20.875C19.3749 21.125 19.6666 21.25 19.9999 21.25ZM25.8333 21.25C26.1944 21.25 26.493 21.125 26.7291 20.875C26.9652 20.625 27.0833 20.3333 27.0833 20C27.0833 19.6666 26.9652 19.375 26.7291 19.125C26.493 18.875 26.1944 18.75 25.8333 18.75C25.4999 18.75 25.2083 18.875 24.9583 19.125C24.7083 19.375 24.5833 19.6666 24.5833 20C24.5833 20.3333 24.7083 20.625 24.9583 20.875C25.2083 21.125 25.4999 21.25 25.8333 21.25ZM17.0833 16.25C17.4166 16.25 17.7083 16.125 17.9583 15.875C18.2083 15.625 18.3333 15.3333 18.3333 15C18.3333 14.6666 18.2083 14.375 17.9583 14.125C17.7083 13.875 17.4166 13.75 17.0833 13.75C16.7499 13.75 16.4583 13.875 16.2083 14.125C15.9583 14.375 15.8333 14.6666 15.8333 15C15.8333 15.3333 15.9583 15.625 16.2083 15.875C16.4583 16.125 16.7499 16.25 17.0833 16.25ZM22.9166 16.25C23.2777 16.25 23.5763 16.125 23.8124 15.875C24.0485 15.625 24.1666 15.3333 24.1666 15C24.1666 14.6666 24.0485 14.375 23.8124 14.125C23.5763 13.875 23.2777 13.75 22.9166 13.75C22.5833 13.75 22.2916 13.875 22.0416 14.125C21.7916 14.375 21.6666 14.6666 21.6666 15C21.6666 15.3333 21.7916 15.625 22.0416 15.875C22.2916 16.125 22.5833 16.25 22.9166 16.25Z" fill="#00FF75"/>
</g>
</svg>
