<svg width="40" height="40" viewBox="0 0 40 40" fill="none" xmlns="http://www.w3.org/2000/svg">
<g id="coronavirus 1">
<path id="Vector" d="M18.7499 36.6667C18.5277 36.6667 18.3333 36.5834 18.1666 36.4167C17.9999 36.25 17.9166 36.0556 17.9166 35.8334C17.9166 35.6111 17.9999 35.4167 18.1666 35.25C18.3333 35.0834 18.5277 35 18.7499 35H19.1666V31.2084C17.9166 31.0695 16.736 30.7709 15.6249 30.3125C14.5138 29.8542 13.5138 29.25 12.6249 28.5L9.95825 31.1667L10.2916 31.5C10.4305 31.6389 10.5208 31.8125 10.5624 32.0209C10.6041 32.2292 10.5138 32.4445 10.2916 32.6667C10.1249 32.8334 9.93047 32.9167 9.70825 32.9167C9.48603 32.9167 9.29158 32.8334 9.12492 32.6667L7.33325 30.9167C7.16659 30.75 7.08325 30.5556 7.08325 30.3334C7.08325 30.1112 7.16659 29.9028 7.33325 29.7084C7.49992 29.5417 7.68742 29.4584 7.89575 29.4584C8.10409 29.4584 8.31936 29.5556 8.54158 29.75L8.79158 30L11.4583 27.3334C10.736 26.4167 10.1458 25.4167 9.68742 24.3334C9.22908 23.25 8.93047 22.0834 8.79158 20.8334H4.99992V21.25C4.99992 21.4723 4.91659 21.6667 4.74992 21.8334C4.58325 22 4.38881 22.0834 4.16659 22.0834C3.94436 22.0834 3.74992 22 3.58325 21.8334C3.41659 21.6667 3.33325 21.4723 3.33325 21.25V18.75C3.33325 18.5278 3.41659 18.3334 3.58325 18.1667C3.74992 18 3.94436 17.9167 4.16659 17.9167C4.38881 17.9167 4.58325 18 4.74992 18.1667C4.91659 18.3334 4.99992 18.5278 4.99992 18.75V19.1667H8.79158C8.93047 17.9167 9.22908 16.75 9.68742 15.6667C10.1458 14.5834 10.736 13.5834 11.4583 12.6667L8.79158 10L8.49992 10.2917C8.33325 10.4584 8.13881 10.5417 7.91659 10.5417C7.69436 10.5417 7.49992 10.4584 7.33325 10.2917C7.16659 10.125 7.08325 9.92365 7.08325 9.68754C7.08325 9.45143 7.16659 9.25004 7.33325 9.08337L9.08325 7.33337C9.24992 7.16671 9.45131 7.08337 9.68742 7.08337C9.92353 7.08337 10.1249 7.16671 10.2916 7.33337C10.4583 7.47226 10.5416 7.65976 10.5416 7.89587C10.5416 8.13198 10.4583 8.31948 10.2916 8.45837L9.95825 8.79171L12.6249 11.4584C13.5416 10.7362 14.5416 10.1459 15.6249 9.68754C16.7083 9.22921 17.8749 8.9306 19.1249 8.79171V5.00004H18.7499C18.5277 5.00004 18.3333 4.91671 18.1666 4.75004C17.9999 4.58337 17.9166 4.38893 17.9166 4.16671C17.9166 3.94449 17.9999 3.75004 18.1666 3.58337C18.3333 3.41671 18.5277 3.33337 18.7499 3.33337H21.2499C21.4721 3.33337 21.6666 3.41671 21.8333 3.58337C21.9999 3.75004 22.0833 3.94449 22.0833 4.16671C22.0833 4.38893 21.9999 4.58337 21.8333 4.75004C21.6666 4.91671 21.4721 5.00004 21.2499 5.00004H20.8333V8.79171C22.0833 8.9306 23.2499 9.22921 24.3333 9.68754C25.4166 10.1459 26.4166 10.7362 27.3333 11.4584L29.9999 8.79171L29.7499 8.54171C29.5555 8.37504 29.4513 8.1806 29.4374 7.95837C29.4235 7.73615 29.5138 7.52782 29.7083 7.33337C29.8749 7.16671 30.0694 7.08337 30.2916 7.08337C30.5138 7.08337 30.7083 7.16671 30.8749 7.33337L32.7083 9.16671C32.8749 9.33337 32.9513 9.52087 32.9374 9.72921C32.9235 9.93754 32.8333 10.125 32.6666 10.2917C32.4999 10.4584 32.3055 10.5278 32.0833 10.5C31.861 10.4723 31.6527 10.375 31.4583 10.2084L31.2083 9.95837L28.5416 12.625C29.2638 13.5417 29.8541 14.5487 30.3124 15.6459C30.7708 16.7431 31.0694 17.9167 31.2083 19.1667H34.9999V18.75C34.9999 18.5278 35.0833 18.3334 35.2499 18.1667C35.4166 18 35.611 17.9167 35.8333 17.9167C36.0555 17.9167 36.2499 18 36.4166 18.1667C36.5832 18.3334 36.6666 18.5278 36.6666 18.75V21.25C36.6666 21.4723 36.5832 21.6667 36.4166 21.8334C36.2499 22 36.0555 22.0834 35.8333 22.0834C35.611 22.0834 35.4166 22 35.2499 21.8334C35.0833 21.6667 34.9999 21.4723 34.9999 21.25V20.8334H31.2083C31.0694 22.0834 30.7708 23.257 30.3124 24.3542C29.8541 25.4514 29.2638 26.4584 28.5416 27.375L31.2083 30.0417L31.4999 29.75C31.6666 29.5834 31.861 29.4931 32.0833 29.4792C32.3055 29.4653 32.4999 29.5417 32.6666 29.7084C32.8333 29.875 32.9166 30.0764 32.9166 30.3125C32.9166 30.5487 32.8333 30.75 32.6666 30.9167L30.9166 32.6667C30.7499 32.8334 30.5485 32.9167 30.3124 32.9167C30.0763 32.9167 29.8749 32.8334 29.7083 32.6667C29.5138 32.4723 29.4305 32.2709 29.4583 32.0625C29.486 31.8542 29.5555 31.6806 29.6666 31.5417L29.9999 31.2084L27.3333 28.5417C26.4166 29.2639 25.4166 29.8612 24.3333 30.3334C23.2499 30.8056 22.0833 31.1112 20.8333 31.25V35H21.2499C21.4721 35 21.6666 35.0834 21.8333 35.25C21.9999 35.4167 22.0833 35.6111 22.0833 35.8334C22.0833 36.0556 21.9999 36.25 21.8333 36.4167C21.6666 36.5834 21.4721 36.6667 21.2499 36.6667H18.7499ZM17.0833 26.25C17.4166 26.25 17.7083 26.125 17.9583 25.875C18.2083 25.625 18.3333 25.3334 18.3333 25C18.3333 24.6667 18.2083 24.375 17.9583 24.125C17.7083 23.875 17.4166 23.75 17.0833 23.75C16.7499 23.75 16.4583 23.875 16.2083 24.125C15.9583 24.375 15.8333 24.6667 15.8333 25C15.8333 25.3334 15.9583 25.625 16.2083 25.875C16.4583 26.125 16.7499 26.25 17.0833 26.25ZM22.9166 26.25C23.2777 26.25 23.5763 26.125 23.8124 25.875C24.0485 25.625 24.1666 25.3334 24.1666 25C24.1666 24.6667 24.0485 24.375 23.8124 24.125C23.5763 23.875 23.2777 23.75 22.9166 23.75C22.5833 23.75 22.2916 23.875 22.0416 24.125C21.7916 24.375 21.6666 24.6667 21.6666 25C21.6666 25.3334 21.7916 25.625 22.0416 25.875C22.2916 26.125 22.5833 26.25 22.9166 26.25ZM14.1666 21.25C14.5277 21.25 14.8263 21.125 15.0624 20.875C15.2985 20.625 15.4166 20.3334 15.4166 20C15.4166 19.6667 15.2985 19.375 15.0624 19.125C14.8263 18.875 14.5277 18.75 14.1666 18.75C13.8333 18.75 13.5416 18.875 13.2916 19.125C13.0416 19.375 12.9166 19.6667 12.9166 20C12.9166 20.3334 13.0416 20.625 13.2916 20.875C13.5416 21.125 13.8333 21.25 14.1666 21.25ZM19.9999 21.25C20.3333 21.25 20.6249 21.125 20.8749 20.875C21.1249 20.625 21.2499 20.3334 21.2499 20C21.2499 19.6667 21.1249 19.375 20.8749 19.125C20.6249 18.875 20.3333 18.75 19.9999 18.75C19.6666 18.75 19.3749 18.875 19.1249 19.125C18.8749 19.375 18.7499 19.6667 18.7499 20C18.7499 20.3334 18.8749 20.625 19.1249 20.875C19.3749 21.125 19.6666 21.25 19.9999 21.25ZM25.8333 21.25C26.1944 21.25 26.493 21.125 26.7291 20.875C26.9652 20.625 27.0833 20.3334 27.0833 20C27.0833 19.6667 26.9652 19.375 26.7291 19.125C26.493 18.875 26.1944 18.75 25.8333 18.75C25.4999 18.75 25.2083 18.875 24.9583 19.125C24.7083 19.375 24.5833 19.6667 24.5833 20C24.5833 20.3334 24.7083 20.625 24.9583 20.875C25.2083 21.125 25.4999 21.25 25.8333 21.25ZM17.0833 16.25C17.4166 16.25 17.7083 16.125 17.9583 15.875C18.2083 15.625 18.3333 15.3334 18.3333 15C18.3333 14.6667 18.2083 14.375 17.9583 14.125C17.7083 13.875 17.4166 13.75 17.0833 13.75C16.7499 13.75 16.4583 13.875 16.2083 14.125C15.9583 14.375 15.8333 14.6667 15.8333 15C15.8333 15.3334 15.9583 15.625 16.2083 15.875C16.4583 16.125 16.7499 16.25 17.0833 16.25ZM22.9166 16.25C23.2777 16.25 23.5763 16.125 23.8124 15.875C24.0485 15.625 24.1666 15.3334 24.1666 15C24.1666 14.6667 24.0485 14.375 23.8124 14.125C23.5763 13.875 23.2777 13.75 22.9166 13.75C22.5833 13.75 22.2916 13.875 22.0416 14.125C21.7916 14.375 21.6666 14.6667 21.6666 15C21.6666 15.3334 21.7916 15.625 22.0416 15.875C22.2916 16.125 22.5833 16.25 22.9166 16.25Z" fill="#FF0000"/>
</g>
</svg>
