<svg width="40" height="40" viewBox="0 0 40 40" fill="none" xmlns="http://www.w3.org/2000/svg">
<g id="Group">
<g id="Group_2">
<path id="Vector" d="M4.49659 4.44444H17.9863C19.2229 4.44444 20.2346 3.44444 20.2346 2.22222C20.2346 1 19.2229 0 17.9863 0H4.49659C2.02346 0 0 2 0 4.44444V35.5556C0 38 2.02346 40 4.49659 40H17.9863C19.2229 40 20.2346 39 20.2346 37.7778C20.2346 36.5556 19.2229 35.5556 17.9863 35.5556H4.49659V4.44444Z" fill="white"/>
<path id="Vector_2" d="M39.6824 19.2222L33.4096 13.0222C32.6902 12.3111 31.4761 12.8 31.4761 13.8V17.7778H15.738C14.5015 17.7778 13.4897 18.7778 13.4897 20C13.4897 21.2222 14.5015 22.2222 15.738 22.2222H31.4761V26.2C31.4761 27.2 32.6902 27.6889 33.3871 26.9778L39.6599 20.7778C40.1095 20.3556 40.1095 19.6445 39.6824 19.2222Z" fill="white"/>
</g>
</g>
</svg>
