<svg width="100" height="100" viewBox="0 0 100 100" fill="none" xmlns="http://www.w3.org/2000/svg">
<g id="upload_file_black_24dp 1" clip-path="url(#clip0_4_177)">
<g id="Group">
<path id="Vector" d="M80.875 30.875L60.75 10.75C59.2083 9.20833 57.0833 8.33333 54.875 8.33333H25C20.4166 8.33333 16.7083 12.0833 16.7083 16.6667L16.6666 83.3333C16.6666 87.9167 20.375 91.6667 24.9583 91.6667H75C79.5833 91.6667 83.3333 87.9167 83.3333 83.3333V36.7917C83.3333 34.5833 82.4583 32.4583 80.875 30.875ZM61.6666 62.5H54.1666V75C54.1666 77.2917 52.2916 79.1667 50 79.1667C47.7083 79.1667 45.8333 77.2917 45.8333 75V62.5H38.375C36.5 62.5 35.5833 60.25 36.9166 58.9583L48.5833 47.3333C49.4166 46.5417 50.7083 46.5417 51.5416 47.3333L63.1666 58.9583C64.4166 60.25 63.5 62.5 61.6666 62.5ZM58.3333 37.5C56.0416 37.5 54.1666 35.625 54.1666 33.3333V14.5833L77.0833 37.5H58.3333Z" fill="#970000"/>
</g>
</g>
<defs>
<clipPath id="clip0_4_177">
<rect width="100" height="100" fill="white"/>
</clipPath>
</defs>
</svg>
